<svg version="1.1" viewBox="0.0 0.0 645.0 176.0" fill="none" stroke="none" stroke-linecap="square" stroke-miterlimit="10" xmlns:xlink="http://www.w3.org/1999/xlink" xmlns="http://www.w3.org/2000/svg"><clipPath id="p.0"><path d="m0 0l645.0 0l0 176.0l-645.0 0l0 -176.0z" clip-rule="nonzero"/></clipPath><g clip-path="url(#p.0)"><path fill="#000000" fill-opacity="0.0" d="m0 0l645.0 0l0 176.0l-645.0 0z" fill-rule="evenodd"/><path fill="#000000" fill-opacity="0.0" d="m218.44357 151.48032l201.66928 0" fill-rule="evenodd"/><path stroke="#434343" stroke-width="4.0" stroke-linejoin="round" stroke-linecap="butt" d="m232.15192 151.48032l174.25262 0" fill-rule="evenodd"/><path fill="#434343" stroke="#434343" stroke-width="4.0" stroke-linecap="butt" d="m232.15192 151.48032l4.498337 -4.498337l-12.35907 4.498337l12.35907 4.498337z" fill-rule="evenodd"/><path fill="#434343" stroke="#434343" stroke-width="4.0" stroke-linecap="butt" d="m406.4045 151.48032l-4.4983215 4.498337l12.35907 -4.498337l-12.35907 -4.498337z" fill-rule="evenodd"/><path fill="#000000" fill-opacity="0.0" d="m420.11285 120.40945l139.77954 0l0 62.14173l-139.77954 0z" fill-rule="evenodd"/><path fill="#434343" d="m436.98785 142.48132l0 8.53125q1.25 -0.75 2.53125 -1.109375q1.28125 -0.359375 2.578125 -0.359375q2.078125 0 3.6875 0.703125q1.625 0.703125 2.6875 2.21875q1.078125 1.515625 1.078125 3.8125l0 7.53125q1.515625 0 1.984375 0.28125q0.9375 0.609375 0.9375 1.71875q0 0.890625 -0.609375 1.453125q-0.59375 0.546875 -2.046875 0.546875l-4.5625 0q-1.4375 0 -2.046875 -0.546875q-0.609375 -0.5625 -0.609375 -1.46875q0 -1.09375 0.9375 -1.703125q0.484375 -0.3125 1.984375 -0.28125l0 -7.25q0 -1.546875 -0.703125 -2.171875q-0.921875 -0.84375 -2.71875 -0.84375q-1.328125 0 -2.359375 0.53125q-1.015625 0.515625 -2.75 2.234375l0 7.5q1.546875 0 1.984375 0.28125q0.96875 0.609375 0.96875 1.71875q0 0.890625 -0.625 1.453125q-0.609375 0.546875 -2.0625 0.546875l-4.546875 0q-1.4375 0 -2.0625 -0.546875q-0.609375 -0.5625 -0.609375 -1.46875q0 -1.09375 0.953125 -1.703125q0.46875 -0.3125 2.0 -0.28125l0 -17.328125l-0.6875 0q-1.453125 0 -2.0625 -0.546875q-0.609375 -0.5625 -0.609375 -1.46875q0 -0.875 0.609375 -1.421875q0.609375 -0.5625 2.0625 -0.5625l4.6875 0zm38.17578 18.484375l-16.421875 0q0.625 1.5625 2.21875 2.53125q1.59375 0.953125 4.3125 0.953125q2.21875 0 5.90625 -0.953125q1.53125 -0.390625 2.109375 -0.390625q0.8125 0 1.359375 0.5625q0.546875 0.5625 0.546875 1.421875q0 0.78125 -0.59375 1.328125q-0.78125 0.71875 -3.8125 1.375q-3.015625 0.65625 -5.8125 0.65625q-4.8125 0 -7.6875 -2.703125q-2.875 -2.71875 -2.875 -6.6875q0 -4.21875 3.109375 -6.859375q3.109375 -2.65625 7.171875 -2.65625q2.453125 0 4.484375 0.859375q2.046875 0.859375 3.046875 1.859375q1.40625 1.4375 2.3125 3.578125q0.625 1.484375 0.625 3.4375l0 1.6875zm-4.421875 -4.0q-0.921875 -1.71875 -2.40625 -2.5625q-1.484375 -0.859375 -3.53125 -0.859375q-2.03125 0 -3.515625 0.859375q-1.484375 0.84375 -2.421875 2.5625l11.875 0zm20.378906 -14.484375l0 21.328125l4.8125 0q1.4375 0 2.046875 0.5625q0.625 0.546875 0.625 1.4375q0 0.890625 -0.625 1.453125q-0.609375 0.546875 -2.046875 0.546875l-13.609375 0q-1.453125 0 -2.078125 -0.546875q-0.609375 -0.5625 -0.609375 -1.46875q0 -0.875 0.609375 -1.421875q0.625 -0.5625 2.078125 -0.5625l4.796875 0l0 -17.328125l-3.21875 0q-1.421875 0 -2.046875 -0.546875q-0.625 -0.5625 -0.625 -1.46875q0 -0.875 0.609375 -1.421875q0.609375 -0.5625 2.0625 -0.5625l7.21875 0zm24.003906 0l0 21.328125l4.8125 0q1.4375 0 2.046875 0.5625q0.625 0.546875 0.625 1.4375q0 0.890625 -0.625 1.453125q-0.609375 0.546875 -2.046875 0.546875l-13.609375 0q-1.453125 0 -2.078125 -0.546875q-0.609375 -0.5625 -0.609375 -1.46875q0 -0.875 0.609375 -1.421875q0.625 -0.5625 2.078125 -0.5625l4.796875 0l0 -17.328125l-3.21875 0q-1.421875 0 -2.046875 -0.546875q-0.625 -0.5625 -0.625 -1.46875q0 -0.875 0.609375 -1.421875q0.609375 -0.5625 2.0625 -0.5625l7.21875 0zm32.410156 16.796875q0 2.296875 -1.28125 4.453125q-1.28125 2.15625 -3.8125 3.4375q-2.53125 1.28125 -5.28125 1.28125q-2.734375 0 -5.234375 -1.25q-2.5 -1.265625 -3.8125 -3.4375q-1.296875 -2.171875 -1.296875 -4.53125q0 -2.40625 1.328125 -4.71875q1.328125 -2.3125 3.8125 -3.640625q2.484375 -1.328125 5.203125 -1.328125q2.734375 0 5.265625 1.359375q2.53125 1.359375 3.8125 3.65625q1.296875 2.296875 1.296875 4.71875zm-4.0 0.015625q0 -1.9375 -1.390625 -3.5625q-1.890625 -2.1875 -4.984375 -2.1875q-2.71875 0 -4.53125 1.75q-1.8125 1.734375 -1.8125 4.015625q0 1.875 1.828125 3.515625q1.84375 1.625 4.515625 1.625q2.703125 0 4.53125 -1.625q1.84375 -1.640625 1.84375 -3.53125z" fill-rule="nonzero"/><path fill="#000000" fill-opacity="0.0" d="m236.6798 46.14173l183.43306 0l0 32.15748l-183.43306 0z" fill-rule="evenodd"/><path fill="#434343" d="m281.92883 98.764854l0 -13.375l1.484375 0l0 1.25q0.53125 -0.734375 1.1875 -1.09375q0.671875 -0.375 1.625 -0.375q1.234375 0 2.171875 0.640625q0.953125 0.625 1.4375 1.796875q0.484375 1.15625 0.484375 2.546875q0 1.484375 -0.53125 2.671875q-0.53125 1.1875 -1.546875 1.828125q-1.015625 0.625 -2.140625 0.625q-0.8125 0 -1.46875 -0.34375q-0.65625 -0.34375 -1.0625 -0.875l0 4.703125l-1.640625 0zm1.484375 -8.484375q0 1.859375 0.75 2.765625q0.765625 0.890625 1.828125 0.890625q1.09375 0 1.875 -0.921875q0.78125 -0.9375 0.78125 -2.875q0 -1.84375 -0.765625 -2.765625q-0.75 -0.921875 -1.8125 -0.921875q-1.046875 0 -1.859375 0.984375q-0.796875 0.96875 -0.796875 2.84375zm15.516327 1.671875l1.6875 0.203125q-0.40625 1.484375 -1.484375 2.3125q-1.078125 0.8125 -2.765625 0.8125q-2.125 0 -3.375 -1.296875q-1.234375 -1.3125 -1.234375 -3.671875q0 -2.453125 1.25 -3.796875q1.265625 -1.34375 3.265625 -1.34375q1.9375 0 3.15625 1.328125q1.234375 1.3125 1.234375 3.703125q0 0.15625 0 0.4375l-7.21875 0q0.09375 1.59375 0.90625 2.453125q0.8125 0.84375 2.015625 0.84375q0.90625 0 1.546875 -0.46875q0.640625 -0.484375 1.015625 -1.515625zm-5.390625 -2.65625l5.40625 0q-0.109375 -1.21875 -0.625 -1.828125q-0.78125 -0.953125 -2.03125 -0.953125q-1.125 0 -1.90625 0.765625q-0.765625 0.75 -0.84375 2.015625zm9.125732 5.765625l0 -9.671875l1.46875 0l0 1.46875q0.5625 -1.03125 1.03125 -1.359375q0.484375 -0.328125 1.0625 -0.328125q0.828125 0 1.6875 0.53125l-0.5625 1.515625q-0.609375 -0.359375 -1.203125 -0.359375q-0.546875 0 -0.96875 0.328125q-0.421875 0.328125 -0.609375 0.890625q-0.28125 0.875 -0.28125 1.921875l0 5.0625l-1.625 0zm5.572052 -2.890625l1.625 -0.25q0.125 0.96875 0.75 1.5q0.625 0.515625 1.75 0.515625q1.125 0 1.671875 -0.453125q0.546875 -0.46875 0.546875 -1.09375q0 -0.546875 -0.484375 -0.875q-0.328125 -0.21875 -1.671875 -0.546875q-1.8125 -0.46875 -2.515625 -0.796875q-0.6875 -0.328125 -1.046875 -0.90625q-0.359375 -0.59375 -0.359375 -1.3125q0 -0.640625 0.296875 -1.1875q0.296875 -0.5625 0.8125 -0.921875q0.375 -0.28125 1.03125 -0.46875q0.671875 -0.203125 1.421875 -0.203125q1.140625 0 2.0 0.328125q0.859375 0.328125 1.265625 0.890625q0.421875 0.5625 0.578125 1.5l-1.609375 0.21875q-0.109375 -0.75 -0.640625 -1.171875q-0.515625 -0.421875 -1.46875 -0.421875q-1.140625 0 -1.625 0.375q-0.46875 0.375 -0.46875 0.875q0 0.3125 0.1875 0.578125q0.203125 0.265625 0.640625 0.4375q0.234375 0.09375 1.4375 0.421875q1.75 0.453125 2.4375 0.75q0.6875 0.296875 1.078125 0.859375q0.390625 0.5625 0.390625 1.40625q0 0.828125 -0.484375 1.546875q-0.46875 0.71875 -1.375 1.125q-0.90625 0.390625 -2.046875 0.390625q-1.875 0 -2.875 -0.78125q-0.984375 -0.78125 -1.25 -2.328125zm9.984375 6.59375l0 -13.375l1.484375 0l0 1.25q0.53125 -0.734375 1.1875 -1.09375q0.671875 -0.375 1.625 -0.375q1.234375 0 2.171875 0.640625q0.953125 0.625 1.4375 1.796875q0.484375 1.15625 0.484375 2.546875q0 1.484375 -0.53125 2.671875q-0.53125 1.1875 -1.546875 1.828125q-1.015625 0.625 -2.140625 0.625q-0.8125 0 -1.46875 -0.34375q-0.65625 -0.34375 -1.0625 -0.875l0 4.703125l-1.640625 0zm1.484375 -8.484375q0 1.859375 0.75 2.765625q0.765625 0.890625 1.828125 0.890625q1.09375 0 1.875 -0.921875q0.78125 -0.9375 0.78125 -2.875q0 -1.84375 -0.765625 -2.765625q-0.75 -0.921875 -1.8125 -0.921875q-1.046875 0 -1.859375 0.984375q-0.796875 0.96875 -0.796875 2.84375zm15.516327 1.671875l1.6875 0.203125q-0.40625 1.484375 -1.484375 2.3125q-1.078125 0.8125 -2.765625 0.8125q-2.125 0 -3.375 -1.296875q-1.234375 -1.3125 -1.234375 -3.671875q0 -2.453125 1.25 -3.796875q1.265625 -1.34375 3.265625 -1.34375q1.9375 0 3.15625 1.328125q1.234375 1.3125 1.234375 3.703125q0 0.15625 0 0.4375l-7.21875 0q0.09375 1.59375 0.90625 2.453125q0.8125 0.84375 2.015625 0.84375q0.90625 0 1.546875 -0.46875q0.640625 -0.484375 1.015625 -1.515625zm-5.390625 -2.65625l5.40625 0q-0.109375 -1.21875 -0.625 -1.828125q-0.78125 -0.953125 -2.03125 -0.953125q-1.125 0 -1.90625 0.765625q-0.765625 0.75 -0.84375 2.015625zm15.453857 2.21875l1.609375 0.21875q-0.265625 1.65625 -1.359375 2.609375q-1.078125 0.9375 -2.671875 0.9375q-1.984375 0 -3.1875 -1.296875q-1.203125 -1.296875 -1.203125 -3.71875q0 -1.578125 0.515625 -2.75q0.515625 -1.171875 1.578125 -1.75q1.0625 -0.59375 2.3125 -0.59375q1.578125 0 2.578125 0.796875q1.0 0.796875 1.28125 2.265625l-1.59375 0.234375q-0.234375 -0.96875 -0.8125 -1.453125q-0.578125 -0.5 -1.390625 -0.5q-1.234375 0 -2.015625 0.890625q-0.78125 0.890625 -0.78125 2.8125q0 1.953125 0.75 2.84375q0.75 0.875 1.953125 0.875q0.96875 0 1.609375 -0.59375q0.65625 -0.59375 0.828125 -1.828125zm6.59375 2.078125l0.234375 1.453125q-0.6875 0.140625 -1.234375 0.140625q-0.890625 0 -1.390625 -0.28125q-0.484375 -0.28125 -0.6875 -0.734375q-0.203125 -0.46875 -0.203125 -1.9375l0 -5.578125l-1.203125 0l0 -1.265625l1.203125 0l0 -2.390625l1.625 -0.984375l0 3.375l1.65625 0l0 1.265625l-1.65625 0l0 5.671875q0 0.6875 0.078125 0.890625q0.09375 0.203125 0.28125 0.328125q0.203125 0.109375 0.578125 0.109375q0.265625 0 0.71875 -0.0625zm1.6051636 -10.0l0 -1.890625l1.640625 0l0 1.890625l-1.640625 0zm0 11.46875l0 -9.671875l1.640625 0l0 9.671875l-1.640625 0zm6.8323364 0l-3.6875 -9.671875l1.734375 0l2.078125 5.796875q0.328125 0.9375 0.625 1.9375q0.203125 -0.765625 0.609375 -1.828125l2.140625 -5.90625l1.6874695 0l-3.6562195 9.671875l-1.53125 0zm13.2655945 -3.109375l1.6875 0.203125q-0.40625 1.484375 -1.484375 2.3125q-1.078125 0.8125 -2.765625 0.8125q-2.125 0 -3.375 -1.296875q-1.234375 -1.3125 -1.234375 -3.671875q0 -2.453125 1.25 -3.796875q1.265625 -1.34375 3.265625 -1.34375q1.9375 0 3.15625 1.328125q1.234375 1.3125 1.234375 3.703125q0 0.15625 0 0.4375l-7.21875 0q0.09375 1.59375 0.90625 2.453125q0.8125 0.84375 2.015625 0.84375q0.90625 0 1.546875 -0.46875q0.640625 -0.484375 1.015625 -1.515625zm-5.390625 -2.65625l5.40625 0q-0.109375 -1.21875 -0.625 -1.828125q-0.78125 -0.953125 -2.03125 -0.953125q-1.125 0 -1.90625 0.765625q-0.765625 0.75 -0.84375 2.015625z" fill-rule="nonzero"/><path fill="#434343" d="m305.33984 113.514854l1.609375 0.21875q-0.265625 1.65625 -1.359375 2.609375q-1.078125 0.9375 -2.671875 0.9375q-1.984375 0 -3.1875 -1.296875q-1.203125 -1.296875 -1.203125 -3.71875q0 -1.578125 0.515625 -2.75q0.515625 -1.171875 1.578125 -1.75q1.0625 -0.59375 2.3125 -0.59375q1.578125 0 2.578125 0.796875q1.0 0.796875 1.28125 2.265625l-1.59375 0.234375q-0.234375 -0.96875 -0.8125 -1.453125q-0.578125 -0.5 -1.390625 -0.5q-1.234375 0 -2.015625 0.890625q-0.78125 0.890625 -0.78125 2.8125q0 1.953125 0.75 2.84375q0.75 0.875 1.953125 0.875q0.96875 0 1.609375 -0.59375q0.65625 -0.59375 0.828125 -1.828125zm3.015625 3.546875l0 -13.359375l1.640625 0l0 4.796875q1.140625 -1.328125 2.890625 -1.328125q1.078125 0 1.859375 0.421875q0.796875 0.421875 1.140625 1.171875q0.34375 0.75 0.34375 2.171875l0 6.125l-1.640625 0l0 -6.125q0 -1.234375 -0.53125 -1.796875q-0.53125 -0.5625 -1.515625 -0.5625q-0.71875 0 -1.359375 0.390625q-0.640625 0.375 -0.921875 1.015625q-0.265625 0.640625 -0.265625 1.78125l0 5.296875l-1.640625 0zm16.688232 -1.1875q-0.921875 0.765625 -1.765625 1.09375q-0.828125 0.3125 -1.796875 0.3125q-1.59375 0 -2.453125 -0.78125q-0.859375 -0.78125 -0.859375 -1.984375q0 -0.71875 0.328125 -1.296875q0.328125 -0.59375 0.84375 -0.9375q0.53125 -0.359375 1.1875 -0.546875q0.46875 -0.125 1.453125 -0.25q1.984375 -0.234375 2.921875 -0.5625q0.015625 -0.34375 0.015625 -0.421875q0 -1.0 -0.46875 -1.421875q-0.625 -0.546875 -1.875 -0.546875q-1.15625 0 -1.703125 0.40625q-0.546875 0.40625 -0.8125 1.421875l-1.609375 -0.21875q0.21875 -1.015625 0.71875 -1.640625q0.5 -0.640625 1.453125 -0.984375q0.953125 -0.34375 2.1875 -0.34375q1.25 0 2.015625 0.296875q0.78125 0.28125 1.140625 0.734375q0.375 0.4375 0.515625 1.109375q0.078125 0.421875 0.078125 1.515625l0 2.1875q0 2.28125 0.109375 2.890625q0.109375 0.59375 0.40625 1.15625l-1.703125 0q-0.265625 -0.515625 -0.328125 -1.1875zm-0.140625 -3.671875q-0.890625 0.375 -2.671875 0.625q-1.015625 0.140625 -1.4375 0.328125q-0.421875 0.1875 -0.65625 0.53125q-0.21875 0.34375 -0.21875 0.78125q0 0.65625 0.5 1.09375q0.5 0.4375 1.453125 0.4375q0.9375 0 1.671875 -0.40625q0.75 -0.421875 1.09375 -1.140625q0.265625 -0.5625 0.265625 -1.640625l0 -0.609375zm4.203827 4.859375l0 -9.671875l1.46875 0l0 1.375q1.0625 -1.59375 3.078125 -1.59375q0.875 0 1.609375 0.3125q0.734375 0.3125 1.09375 0.828125q0.375 0.5 0.515625 1.203125q0.09375 0.453125 0.09375 1.59375l0 5.953125l-1.640625 0l0 -5.890625q0 -1.0 -0.203125 -1.484375q-0.1875 -0.5 -0.671875 -0.796875q-0.484375 -0.296875 -1.140625 -0.296875q-1.046875 0 -1.8125 0.671875q-0.75 0.65625 -0.75 2.515625l0 5.28125l-1.640625 0zm10.063232 0.796875l1.59375 0.234375q0.109375 0.75 0.5625 1.078125q0.609375 0.453125 1.671875 0.453125q1.140625 0 1.75 -0.453125q0.625 -0.453125 0.84375 -1.265625q0.125 -0.5 0.109375 -2.109375q-1.0625 1.265625 -2.671875 1.265625q-2.0 0 -3.09375 -1.4375q-1.09375 -1.4375 -1.09375 -3.453125q0 -1.390625 0.5 -2.5625q0.515625 -1.171875 1.453125 -1.796875q0.953125 -0.640625 2.25 -0.640625q1.703125 0 2.8125 1.375l0 -1.15625l1.515625 0l0 8.359375q0 2.265625 -0.46875 3.203125q-0.453125 0.9375 -1.453125 1.484375q-0.984375 0.546875 -2.453125 0.546875q-1.71875 0 -2.796875 -0.78125q-1.0625 -0.765625 -1.03125 -2.34375zm1.359375 -5.8125q0 1.90625 0.75 2.78125q0.765625 0.875 1.90625 0.875q1.125 0 1.890625 -0.859375q0.765625 -0.875 0.765625 -2.734375q0 -1.78125 -0.796875 -2.671875q-0.78125 -0.90625 -1.890625 -0.90625q-1.09375 0 -1.859375 0.890625q-0.765625 0.875 -0.765625 2.625zm15.953827 1.90625l1.6875 0.203125q-0.40625 1.484375 -1.484375 2.3125q-1.078125 0.8125 -2.765625 0.8125q-2.125 0 -3.375 -1.296875q-1.234375 -1.3125 -1.234375 -3.671875q0 -2.453125 1.25 -3.796875q1.265625 -1.34375 3.265625 -1.34375q1.9375 0 3.15625 1.328125q1.234375 1.3125 1.234375 3.703125q0 0.15625 0 0.4375l-7.21875 0q0.09375 1.59375 0.90625 2.453125q0.8125 0.84375 2.015625 0.84375q0.90625 0 1.546875 -0.46875q0.640625 -0.484375 1.015625 -1.515625zm-5.390625 -2.65625l5.40625 0q-0.109375 -1.21875 -0.625 -1.828125q-0.78125 -0.953125 -2.03125 -0.953125q-1.125 0 -1.90625 0.765625q-0.765625 0.75 -0.84375 2.015625z" fill-rule="nonzero"/><path fill="#000000" fill-opacity="0.0" d="m0 120.40945l261.98425 0l0 62.14173l-261.98425 0z" fill-rule="evenodd"/><path fill="#434343" d="m25.921875 167.0282q-5.1875 0 -7.296875 -2.125q-2.125 -2.109375 -2.125 -5.578125q0 -1.828125 0.84375 -4.984375l5.28125 0.703125q-1.03125 3.3125 -1.03125 4.28125q0 1.0625 0.6875 1.765625q0.859375 0.84375 3.796875 0.84375l17.859375 0l0 5.09375l-18.015625 0zm-7.078125 -28.0625l21.96875 0l0 5.09375l-21.96875 0l0 -5.09375zm48.765625 17.53125q-0.203125 -1.1875 -1.375 -1.1875q-3.4375 0 -6.015625 4.28125q-1.671875 2.765625 -3.703125 7.921875l-5.21875 -2.71875q6.875 -10.71875 16.125 -29.890625l4.3125 2.34375q2.421875 2.421875 -0.5 2.703125q-3.046875 4.484375 -6.453125 10.859375q0.671875 -0.28125 2.859375 -0.28125q2.21875 0 3.546875 1.34375q1.3125 1.296875 1.65625 4.84375l0.921875 5.921875q0.203125 1.328125 1.6875 1.328125q1.6875 0 2.859375 -1.15625q2.78125 -2.796875 4.65625 -12.375l5.0 2.5q-2.234375 9.78125 -5.21875 12.75q-3.359375 3.375 -7.609375 3.375q-5.5625 0 -6.4375 -5.859375l-1.09375 -6.703125zm49.71875 9.4375q-7.671875 0 -13.296875 -5.4375l3.046875 -3.96875q4.640625 4.453125 10.234375 4.3125l9.4375 0l0 5.09375l-9.421875 0zm-23.125 3.046875q-0.515625 -9.0 -0.515625 -14.8125q0 -7.109375 1.890625 -17.734375l3.953125 0.984375q3.640625 0.671875 0.734375 2.703125q-1.484375 8.65625 -1.484375 14.046875q0 6.0625 0.6875 14.34375l-5.265625 0.46875zm30.515625 -23.1875q-7.515625 -0.171875 -19.15625 1.015625l0 -4.953125q12.046875 -1.171875 19.15625 -1.0l0 4.9375zm19.90625 19.234375q11.59375 0.328125 14.0 -2.0625q1.15625 -1.171875 1.15625 -3.015625q0 -1.53125 -1.3125 -2.859375q-1.171875 -1.15625 -3.953125 -1.15625q-3.859375 0 -6.8125 1.46875q-1.796875 0.90625 -6.609375 4.859375l-4.078125 -3.171875q1.546875 -1.546875 2.21875 -2.484375q1.671875 -5.296875 2.53125 -9.609375q-3.140625 0.34375 -7.34375 0.34375l-0.71875 -4.78125q4.53125 0 9.046875 -0.40625q0.625 -2.796875 1.015625 -7.625l3.921875 1.03125q4.046875 1.0 0.84375 2.609375q-0.390625 2.109375 -0.734375 3.5q5.03125 -0.5 9.40625 -1.453125l0.953125 4.984375q-7.140625 0.890625 -11.40625 1.296875q-0.953125 4.109375 -1.640625 6.921875q4.203125 -2.109375 8.9375 -2.109375q5.65625 0 8.390625 2.75q2.4375 2.421875 2.4375 6.359375q0 3.78125 -2.4375 6.203125q-3.671875 3.6875 -16.1875 3.515625l-1.625 -5.109375zm54.828125 -17.25q0.265625 5.140625 -0.015625 10.515625q4.21875 1.546875 9.328125 5.1875l-2.78125 4.390625q-3.9375 -3.0 -6.578125 -4.265625q0 1.84375 -1.96875 3.796875q-2.109375 2.125 -6.046875 2.125q-3.9375 0 -6.046875 -2.125q-1.8125 -1.796875 -1.8125 -4.640625q0 -2.53125 1.5 -4.015625q2.109375 -2.125 6.203125 -2.125q2.125 0 3.296875 0.265625q0.25 -4.28125 -0.015625 -8.875l-11.609375 0.796875l0 -4.953125l11.21875 -0.625q-0.125 -3.515625 -0.71875 -7.859375l4.3125 0q3.8125 0.6875 1.078125 2.5q0.140625 2.8125 0.25 5.109375l8.484375 -0.46875l0 4.953125l-8.078125 0.3125zm-25.171875 21.109375q-0.75 -5.28125 -0.75 -11.125q0 -12.75 2.078125 -21.265625l4.296875 0.78125q2.828125 1.203125 0.296875 2.46875q-1.578125 5.015625 -1.578125 18.015625q0 5.84375 0.953125 10.203125l-5.296875 0.921875zm20.234375 -7.21875q-2.0 -0.578125 -3.28125 -0.578125q-1.84375 0 -2.546875 0.6875q-0.53125 0.546875 -0.53125 0.984375q0 0.90625 0.375 1.296875q0.859375 0.84375 2.703125 0.84375q1.8125 0 2.5 -0.8125q0.875 -0.984375 0.78125 -2.421875z" fill-rule="nonzero"/><path fill="#000000" fill-opacity="0.0" d="m212.50656 0l231.77954 0l0 62.14173l-231.77954 0z" fill-rule="evenodd"/><path fill="#434343" d="m236.13156 35.321873l6.6875 8.078125q1.1875 0.015625 1.78125 0.578125q0.59375 0.546875 0.59375 1.421875q0 0.890625 -0.609375 1.453125q-0.609375 0.546875 -2.0625 0.546875l-4.515625 0q-1.421875 0 -2.046875 -0.546875q-0.609375 -0.5625 -0.609375 -1.46875q0 -0.84375 0.5625 -1.390625q0.578125 -0.5625 1.703125 -0.59375l-4.015625 -4.96875l-4.0625 4.96875q1.109375 0.03125 1.671875 0.609375q0.578125 0.5625 0.578125 1.390625q0 0.890625 -0.625 1.453125q-0.609375 0.546875 -2.0625 0.546875l-4.484375 0q-1.453125 0 -2.0625 -0.546875q-0.609375 -0.5625 -0.609375 -1.46875q0 -0.859375 0.59375 -1.421875q0.609375 -0.5625 1.78125 -0.5625l6.640625 -8.109375l-6.328125 -7.5625q-1.171875 -0.03125 -1.75 -0.59375q-0.578125 -0.5625 -0.578125 -1.421875q0 -0.890625 0.609375 -1.4375q0.625 -0.5625 2.078125 -0.5625l3.6875 0.015625q1.4375 0 2.046875 0.546875q0.625 0.546875 0.625 1.4375q0 0.671875 -0.390625 1.21875q-0.25 0.328125 -1.125 0.796875l3.71875 4.46875l3.65625 -4.46875q-0.875 -0.46875 -1.125 -0.796875q-0.390625 -0.546875 -0.390625 -1.21875q0 -0.875 0.609375 -1.4375q0.609375 -0.5625 2.0625 -0.5625l3.671875 0.015625q1.4375 0 2.046875 0.546875q0.625 0.546875 0.625 1.4375q0 0.859375 -0.59375 1.4375q-0.59375 0.5625 -1.734375 0.578125l-6.25 7.59375zm22.816406 -13.25l0 4.234375l-4.765625 0l0 -4.234375l4.765625 0zm0.546875 7.59375l0 13.734375l4.8125 0q1.4375 0 2.046875 0.5625q0.625 0.546875 0.625 1.4375q0 0.890625 -0.625 1.453125q-0.609375 0.546875 -2.046875 0.546875l-13.625 0q-1.4375 0 -2.0625 -0.546875q-0.609375 -0.5625 -0.609375 -1.46875q0 -0.875 0.609375 -1.421875q0.625 -0.5625 2.0625 -0.5625l4.8125 0l0 -9.734375l-3.21875 0q-1.4375 0 -2.0625 -0.546875q-0.625 -0.5625 -0.625 -1.46875q0 -0.875 0.609375 -1.421875q0.625 -0.5625 2.078125 -0.5625l7.21875 0zm17.972656 0l0 1.34375q1.09375 -0.9375 2.40625 -1.40625q1.328125 -0.46875 2.859375 -0.46875q3.5625 0 5.625 2.203125q1.640625 1.765625 1.640625 4.609375l0 7.453125q1.28125 0 1.875 0.5625q0.609375 0.546875 0.609375 1.4375q0 0.890625 -0.625 1.453125q-0.609375 0.546875 -2.046875 0.546875l-3.609375 0q-1.453125 0 -2.078125 -0.546875q-0.609375 -0.5625 -0.609375 -1.46875q0 -0.875 0.609375 -1.421875q0.609375 -0.5625 1.875 -0.5625l0 -7.5625q0 -1.3125 -0.703125 -1.921875q-0.921875 -0.78125 -2.75 -0.78125q-1.390625 0 -2.4375 0.546875q-1.046875 0.53125 -2.640625 2.265625l0 7.453125q1.546875 0 1.984375 0.28125q0.96875 0.59375 0.96875 1.71875q0 0.890625 -0.625 1.453125q-0.609375 0.546875 -2.0625 0.546875l-4.546875 0q-1.4375 0 -2.0625 -0.546875q-0.609375 -0.5625 -0.609375 -1.46875q0 -1.09375 0.9375 -1.703125q0.46875 -0.28125 2.015625 -0.28125l0 -9.734375q-1.28125 0 -1.890625 -0.5625q-0.59375 -0.5625 -0.59375 -1.453125q0 -0.875 0.609375 -1.421875q0.625 -0.5625 2.0625 -0.5625l3.8125 0zm58.304688 0.71875q0.71875 -0.6875 1.484375 -0.6875q0.859375 0 1.40625 0.625q0.5625 0.609375 0.5625 2.03125l0 2.578125q0 1.453125 -0.5625 2.0625q-0.546875 0.59375 -1.453125 0.59375q-0.8125 0 -1.390625 -0.46875q-0.40625 -0.34375 -0.640625 -1.421875q-0.234375 -1.09375 -1.125 -1.625q-1.59375 -0.9375 -4.046875 -0.9375q-2.828125 0 -4.546875 1.671875q-1.703125 1.65625 -1.703125 4.1875q0 2.34375 1.640625 3.703125q1.640625 1.359375 5.453125 1.359375q2.5 0 4.078125 -0.5q0.9375 -0.3125 1.765625 -1.0625q0.84375 -0.765625 1.53125 -0.765625q0.828125 0 1.421875 0.609375q0.59375 0.609375 0.59375 1.421875q0 1.328125 -1.8125 2.53125q-2.703125 1.78125 -7.890625 1.78125q-4.671875 0 -7.265625 -1.9375q-3.515625 -2.609375 -3.515625 -7.109375q0 -4.28125 2.84375 -7.078125q2.859375 -2.8125 7.4375 -2.8125q1.671875 0 3.09375 0.3125q1.421875 0.3125 2.640625 0.9375zm13.628906 -8.3125l0 8.53125q1.25 -0.75 2.53125 -1.109375q1.28125 -0.359375 2.578125 -0.359375q2.078125 0 3.6875 0.703125q1.625 0.703125 2.6875 2.21875q1.078125 1.515625 1.078125 3.8125l0 7.53125q1.515625 0 1.984375 0.28125q0.9375 0.609375 0.9375 1.71875q0 0.890625 -0.609375 1.453125q-0.59375 0.546875 -2.046875 0.546875l-4.5625 0q-1.4375 0 -2.046875 -0.546875q-0.609375 -0.5625 -0.609375 -1.46875q0 -1.09375 0.9375 -1.703125q0.484375 -0.3125 1.984375 -0.28125l0 -7.25q0 -1.546875 -0.703125 -2.171875q-0.921875 -0.84375 -2.71875 -0.84375q-1.328125 0 -2.359375 0.53125q-1.015625 0.515625 -2.75 2.234375l0 7.5q1.546875 0 1.984375 0.28125q0.96875 0.609375 0.96875 1.71875q0 0.890625 -0.625 1.453125q-0.609375 0.546875 -2.0625 0.546875l-4.546875 0q-1.4375 0 -2.0625 -0.546875q-0.609375 -0.5625 -0.609375 -1.46875q0 -1.09375 0.953125 -1.703125q0.46875 -0.3125 2.0 -0.28125l0 -17.328125l-0.6875 0q-1.453125 0 -2.0625 -0.546875q-0.609375 -0.5625 -0.609375 -1.46875q0 -0.875 0.609375 -1.421875q0.609375 -0.5625 2.0625 -0.5625l4.6875 0zm31.738281 25.328125l0 -0.9375q-1.5 0.796875 -3.328125 1.203125q-1.8125 0.40625 -3.296875 0.40625q-3.21875 0 -5.234375 -1.703125q-2.015625 -1.71875 -2.015625 -3.796875q0 -2.515625 2.5625 -4.671875q2.578125 -2.15625 7.109375 -2.15625q1.8125 0 4.203125 0.390625l0 -0.96875q0 -0.890625 -0.78125 -1.453125q-0.765625 -0.578125 -2.9375 -0.578125q-1.765625 0 -4.609375 0.703125q-1.046875 0.265625 -1.640625 0.265625q-0.796875 0 -1.359375 -0.578125q-0.546875 -0.578125 -0.546875 -1.484375q0 -0.5 0.1875 -0.875q0.203125 -0.375 0.546875 -0.59375q0.359375 -0.21875 1.46875 -0.53125q1.484375 -0.421875 3.03125 -0.65625q1.546875 -0.25 2.796875 -0.25q3.71875 0 5.78125 1.609375q2.0625 1.609375 2.0625 4.40625l0 8.25l0.6875 0q1.4375 0 2.046875 0.5625q0.625 0.546875 0.625 1.4375q0 0.890625 -0.625 1.453125q-0.609375 0.546875 -2.046875 0.546875l-4.6875 0zm0 -7.171875q-2.40625 -0.46875 -4.4375 -0.46875q-2.4375 0 -4.203125 1.1875q-1.09375 0.765625 -1.09375 1.546875q0 0.5625 0.53125 0.921875q0.984375 0.640625 2.671875 0.640625q1.453125 0 3.28125 -0.5625q1.828125 -0.5625 3.25 -1.546875l0 -1.71875zm-4.984375 -19.0l4.390625 3.578125q0.8125 0.625 0.8125 1.25q0 0.546875 -0.390625 0.921875q-0.375 0.359375 -0.921875 0.359375q-0.453125 0 -1.109375 -0.53125l-4.421875 -3.5625q-0.78125 -0.625 -0.78125 -1.25q0 -0.546875 0.375 -0.921875q0.390625 -0.375 0.9375 -0.375q0.453125 0 1.109375 0.53125zm35.785156 17.640625q0 2.296875 -1.28125 4.453125q-1.28125 2.15625 -3.8125 3.4375q-2.53125 1.28125 -5.28125 1.28125q-2.734375 0 -5.234375 -1.25q-2.5 -1.265625 -3.8125 -3.4375q-1.296875 -2.171875 -1.296875 -4.53125q0 -2.40625 1.328125 -4.71875q1.328125 -2.3125 3.8125 -3.640625q2.484375 -1.328125 5.203125 -1.328125q2.734375 0 5.265625 1.359375q2.53125 1.359375 3.8125 3.65625q1.296875 2.296875 1.296875 4.71875zm-4.0 0.015625q0 -1.9375 -1.390625 -3.5625q-1.890625 -2.1875 -4.984375 -2.1875q-2.71875 0 -4.53125 1.75q-1.8125 1.734375 -1.8125 4.015625q0 1.875 1.828125 3.515625q1.84375 1.625 4.515625 1.625q2.703125 0 4.53125 -1.625q1.84375 -1.640625 1.84375 -3.53125z" fill-rule="nonzero"/><path fill="#000000" fill-opacity="0.0" d="m130.99213 120.40945l105.70079 -58.173225" fill-rule="evenodd"/><path stroke="#434343" stroke-width="4.0" stroke-linejoin="round" stroke-linecap="butt" d="m143.00179 113.799835l81.68147 -44.95401" fill-rule="evenodd"/><path fill="#434343" stroke="#434343" stroke-width="4.0" stroke-linecap="butt" d="m143.00179 113.79984l1.7720032 -6.109833l-8.658661 9.899963l12.9964905 -2.0181274z" fill-rule="evenodd"/><path fill="#434343" stroke="#434343" stroke-width="4.0" stroke-linecap="butt" d="m224.68326 68.845825l-1.7720032 6.109833l8.658661 -9.899956l-12.9964905 2.0181198z" fill-rule="evenodd"/><path fill="#000000" fill-opacity="0.0" d="m394.0 63.56168l93.00787 58.01575" fill-rule="evenodd"/><path stroke="#434343" stroke-width="4.0" stroke-linejoin="round" stroke-linecap="butt" d="m405.63107 70.81682l69.74573 43.50547" fill-rule="evenodd"/><path fill="#434343" stroke="#434343" stroke-width="4.0" stroke-linecap="butt" d="m405.63107 70.81682l6.197418 -1.4359436l-12.867004 -2.72435l8.10553 10.357719z" fill-rule="evenodd"/><path fill="#434343" stroke="#434343" stroke-width="4.0" stroke-linecap="butt" d="m475.3768 114.32229l-6.197418 1.4359436l12.867004 2.72435l-8.10553 -10.357719z" fill-rule="evenodd"/></g></svg>