<svg version="1.1" viewBox="0.0 0.0 417.0 175.56167979002623" fill="none" stroke="none" stroke-linecap="square" stroke-miterlimit="10" xmlns:xlink="http://www.w3.org/1999/xlink" xmlns="http://www.w3.org/2000/svg"><clipPath id="p.0"><path d="m0 0l417.0 0l0 175.56168l-417.0 0l0 -175.56168z" clip-rule="nonzero"/></clipPath><g clip-path="url(#p.0)"><path fill="#000000" fill-opacity="0.0" d="m0 0l417.0 0l0 175.56168l-417.0 0z" fill-rule="evenodd"/><path fill="#000000" fill-opacity="0.0" d="m158.26378 135.58797l100.47243 0.28346252" fill-rule="evenodd"/><path stroke="#434343" stroke-width="2.0" stroke-linejoin="round" stroke-linecap="butt" d="m170.26373 135.62181l76.472534 0.21575928" fill-rule="evenodd"/><path fill="#434343" stroke="#434343" stroke-width="2.0" stroke-linecap="butt" d="m170.27306 132.31836l-9.08548 3.2778473l9.0668335 3.3290558z" fill-rule="evenodd"/><path fill="#434343" stroke="#434343" stroke-width="2.0" stroke-linecap="butt" d="m246.72694 139.14102l9.08548 -3.2778473l-9.0668335 -3.3290558z" fill-rule="evenodd"/><path fill="#000000" fill-opacity="0.0" d="m283.6299 93.00528l95.71655 0l0 56.0l-95.71655 0z" fill-rule="evenodd"/><path fill="#434343" d="m297.34866 125.202156l0 5.1249924q0.75 -0.453125 1.515625 -0.65625q0.78125 -0.21875 1.5625 -0.21875q1.234375 0 2.203125 0.421875q0.984375 0.421875 1.625 1.328125q0.640625 0.90625 0.640625 2.28125l0 4.515625q0.90625 0 1.1875 0.171875q0.5625 0.375 0.5625 1.03125q0 0.53125 -0.359375 0.875q-0.359375 0.328125 -1.234375 0.328125l-2.734375 0q-0.859375 0 -1.234375 -0.328125q-0.359375 -0.34375 -0.359375 -0.875q0 -0.65625 0.5625 -1.03125q0.28125 -0.1875 1.1875 -0.171875l0 -4.34375q0 -0.921875 -0.421875 -1.296875q-0.546875 -0.515625 -1.625 -0.515625q-0.796875 0 -1.421875 0.3125q-0.609375 0.3125 -1.65625 1.34375l0 4.5q0.9375 0 1.203125 0.171875q0.578125 0.375 0.578125 1.03125q0 0.53125 -0.375 0.875q-0.375 0.328125 -1.234375 0.328125l-2.734375 0q-0.859375 0 -1.234375 -0.328125q-0.375 -0.34375 -0.375 -0.875q0 -0.65625 0.578125 -1.03125q0.28125 -0.1875 1.203125 -0.171875l0 -10.390617l-0.421875 0q-0.859375 0 -1.234375 -0.328125q-0.359375 -0.34375 -0.359375 -0.875q0 -0.53125 0.359375 -0.859375q0.375 -0.34375 1.234375 -0.34375l2.8125 0zm22.917969 11.093742l-9.859375 0q0.375 0.9375 1.328125 1.515625q0.953125 0.578125 2.59375 0.578125q1.328125 0 3.546875 -0.578125q0.90625 -0.234375 1.265625 -0.234375q0.484375 0 0.8125 0.34375q0.328125 0.34375 0.328125 0.859375q0 0.46875 -0.359375 0.796875q-0.46875 0.421875 -2.28125 0.828125q-1.8125 0.390625 -3.5 0.390625q-2.875 0 -4.609375 -1.625q-1.71875 -1.640625 -1.71875 -4.015625q0 -2.53125 1.859375 -4.109375q1.875 -1.59375 4.3125 -1.59375q1.46875 0 2.6875 0.515625q1.21875 0.515625 1.828125 1.109375q0.84375 0.859375 1.390625 2.140625q0.375 0.890625 0.375 2.0625l0 1.015625zm-2.65625 -2.390625q-0.5625 -1.03125 -1.453125 -1.546875q-0.890625 -0.515625 -2.109375 -0.515625q-1.21875 0 -2.109375 0.515625q-0.890625 0.515625 -1.453125 1.546875l7.125 0zm12.230469 -8.703117l0 12.796867l2.875 0q0.875 0 1.234375 0.34375q0.375 0.328125 0.375 0.859375q0 0.53125 -0.375 0.875q-0.359375 0.328125 -1.234375 0.328125l-8.15625 0q-0.875 0 -1.25 -0.328125q-0.359375 -0.34375 -0.359375 -0.875q0 -0.53125 0.359375 -0.859375q0.375 -0.34375 1.25 -0.34375l2.875 0l0 -10.390617l-1.9375 0q-0.84375 0 -1.21875 -0.328125q-0.375 -0.34375 -0.375 -0.875q0 -0.53125 0.359375 -0.859375q0.375 -0.34375 1.234375 -0.34375l4.34375 0zm14.402344 0l0 12.796867l2.875 0q0.875 0 1.234375 0.34375q0.375 0.328125 0.375 0.859375q0 0.53125 -0.375 0.875q-0.359375 0.328125 -1.234375 0.328125l-8.15625 0q-0.875 0 -1.25 -0.328125q-0.359375 -0.34375 -0.359375 -0.875q0 -0.53125 0.359375 -0.859375q0.375 -0.34375 1.25 -0.34375l2.875 0l0 -10.390617l-1.9375 0q-0.84375 0 -1.21875 -0.328125q-0.375 -0.34375 -0.375 -0.875q0 -0.53125 0.359375 -0.859375q0.375 -0.34375 1.234375 -0.34375l4.34375 0zm19.433594 10.078117q0 1.390625 -0.765625 2.6875q-0.765625 1.28125 -2.28125 2.0625q-1.515625 0.765625 -3.171875 0.765625q-1.640625 0 -3.140625 -0.75q-1.5 -0.765625 -2.28125 -2.0625q-0.78125 -1.3125 -0.78125 -2.71875q0 -1.453125 0.796875 -2.828125q0.796875 -1.390625 2.28125 -2.1875q1.5 -0.796875 3.125 -0.796875q1.640625 0 3.15625 0.8125q1.515625 0.8125 2.28125 2.1875q0.78125 1.375 0.78125 2.828125zm-2.390625 0.015625q0 -1.15625 -0.84375 -2.140625q-1.125 -1.3125 -2.984375 -1.3125q-1.625 0 -2.71875 1.046875q-1.09375 1.046875 -1.09375 2.421875q0 1.125 1.09375 2.109375q1.109375 0.96875 2.71875 0.96875q1.625 0 2.71875 -0.96875q1.109375 -0.984375 1.109375 -2.125z" fill-rule="nonzero"/><path fill="#000000" fill-opacity="0.0" d="m151.77165 56.21497l125.60631 0l0 55.999996l-125.60631 0z" fill-rule="evenodd"/><path fill="#434343" d="m168.1073 86.83809l0 -13.375l1.484375 0l0 1.25q0.53125 -0.734375 1.1875 -1.09375q0.671875 -0.375 1.625 -0.375q1.234375 0 2.171875 0.640625q0.953125 0.625 1.4375 1.796875q0.484375 1.15625 0.484375 2.546875q0 1.484375 -0.53125 2.671875q-0.53125 1.1875 -1.546875 1.828125q-1.015625 0.625 -2.140625 0.625q-0.8125 0 -1.46875 -0.34375q-0.65625 -0.34375 -1.0625 -0.875l0 4.703125l-1.640625 0zm1.484375 -8.484375q0 1.859375 0.75 2.765625q0.765625 0.890625 1.828125 0.890625q1.09375 0 1.875 -0.921875q0.78125 -0.9375 0.78125 -2.875q0 -1.84375 -0.765625 -2.765625q-0.75 -0.921875 -1.8125 -0.921875q-1.046875 0 -1.859375 0.984375q-0.796875 0.96875 -0.796875 2.84375zm15.516342 1.671875l1.6875 0.203125q-0.40625 1.484375 -1.484375 2.3125q-1.078125 0.8125 -2.765625 0.8125q-2.125 0 -3.375 -1.296875q-1.234375 -1.3125 -1.234375 -3.671875q0 -2.453125 1.25 -3.796875q1.265625 -1.34375 3.265625 -1.34375q1.9375 0 3.15625 1.328125q1.234375 1.3125 1.234375 3.703125q0 0.15625 0 0.4375l-7.21875 0q0.09375 1.59375 0.90625 2.453125q0.8125 0.84375 2.015625 0.84375q0.90625 0 1.546875 -0.46875q0.640625 -0.484375 1.015625 -1.515625zm-5.390625 -2.65625l5.40625 0q-0.109375 -1.21875 -0.625 -1.828125q-0.78125 -0.953125 -2.03125 -0.953125q-1.125 0 -1.90625 0.765625q-0.765625 0.75 -0.84375 2.015625zm9.125717 5.765625l0 -9.671875l1.46875 0l0 1.46875q0.5625 -1.03125 1.03125 -1.359375q0.484375 -0.328125 1.0625 -0.328125q0.828125 0 1.6875 0.53125l-0.5625 1.515625q-0.609375 -0.359375 -1.203125 -0.359375q-0.546875 0 -0.96875 0.328125q-0.421875 0.328125 -0.609375 0.890625q-0.28125 0.875 -0.28125 1.921875l0 5.0625l-1.625 0zm5.572052 -2.890625l1.625 -0.25q0.125 0.96875 0.75 1.5q0.625 0.515625 1.75 0.515625q1.125 0 1.671875 -0.453125q0.546875 -0.46875 0.546875 -1.09375q0 -0.546875 -0.484375 -0.875q-0.328125 -0.21875 -1.671875 -0.546875q-1.8125 -0.46875 -2.515625 -0.796875q-0.6875 -0.328125 -1.046875 -0.90625q-0.359375 -0.59375 -0.359375 -1.3125q0 -0.640625 0.296875 -1.1875q0.296875 -0.5625 0.8125 -0.921875q0.375 -0.28125 1.03125 -0.46875q0.671875 -0.203125 1.421875 -0.203125q1.140625 0 2.0 0.328125q0.859375 0.328125 1.265625 0.890625q0.421875 0.5625 0.578125 1.5l-1.609375 0.21875q-0.109375 -0.75 -0.640625 -1.171875q-0.515625 -0.421875 -1.46875 -0.421875q-1.140625 0 -1.625 0.375q-0.46875 0.375 -0.46875 0.875q0 0.3125 0.1875 0.578125q0.203125 0.265625 0.640625 0.4375q0.234375 0.09375 1.4375 0.421875q1.75 0.453125 2.4375 0.75q0.6875 0.296875 1.078125 0.859375q0.390625 0.5625 0.390625 1.40625q0 0.828125 -0.484375 1.546875q-0.46875 0.71875 -1.375 1.125q-0.90625 0.390625 -2.046875 0.390625q-1.875 0 -2.875 -0.78125q-0.984375 -0.78125 -1.25 -2.328125zm9.984375 6.59375l0 -13.375l1.484375 0l0 1.25q0.53125 -0.734375 1.1875 -1.09375q0.671875 -0.375 1.625 -0.375q1.234375 0 2.171875 0.640625q0.953125 0.625 1.4375 1.796875q0.484375 1.15625 0.484375 2.546875q0 1.484375 -0.53125 2.671875q-0.53125 1.1875 -1.546875 1.828125q-1.015625 0.625 -2.140625 0.625q-0.8125 0 -1.46875 -0.34375q-0.65625 -0.34375 -1.0625 -0.875l0 4.703125l-1.640625 0zm1.484375 -8.484375q0 1.859375 0.75 2.765625q0.765625 0.890625 1.828125 0.890625q1.09375 0 1.875 -0.921875q0.78125 -0.9375 0.78125 -2.875q0 -1.84375 -0.765625 -2.765625q-0.75 -0.921875 -1.8125 -0.921875q-1.046875 0 -1.859375 0.984375q-0.796875 0.96875 -0.796875 2.84375zm15.516342 1.671875l1.6875 0.203125q-0.40625 1.484375 -1.484375 2.3125q-1.078125 0.8125 -2.765625 0.8125q-2.125 0 -3.375 -1.296875q-1.234375 -1.3125 -1.234375 -3.671875q0 -2.453125 1.25 -3.796875q1.265625 -1.34375 3.265625 -1.34375q1.9375 0 3.15625 1.328125q1.234375 1.3125 1.234375 3.703125q0 0.15625 0 0.4375l-7.21875 0q0.09375 1.59375 0.90625 2.453125q0.8125 0.84375 2.015625 0.84375q0.90625 0 1.546875 -0.46875q0.640625 -0.484375 1.015625 -1.515625zm-5.390625 -2.65625l5.40625 0q-0.109375 -1.21875 -0.625 -1.828125q-0.78125 -0.953125 -2.03125 -0.953125q-1.125 0 -1.90625 0.765625q-0.765625 0.75 -0.84375 2.015625zm15.453842 2.21875l1.609375 0.21875q-0.265625 1.65625 -1.359375 2.609375q-1.078125 0.9375 -2.671875 0.9375q-1.984375 0 -3.1875 -1.296875q-1.203125 -1.296875 -1.203125 -3.71875q0 -1.578125 0.515625 -2.75q0.515625 -1.171875 1.578125 -1.75q1.0625 -0.59375 2.3125 -0.59375q1.578125 0 2.578125 0.796875q1.0 0.796875 1.28125 2.265625l-1.59375 0.234375q-0.234375 -0.96875 -0.8125 -1.453125q-0.578125 -0.5 -1.390625 -0.5q-1.234375 0 -2.015625 0.890625q-0.78125 0.890625 -0.78125 2.8125q0 1.953125 0.75 2.84375q0.75 0.875 1.953125 0.875q0.96875 0 1.609375 -0.59375q0.65625 -0.59375 0.828125 -1.828125zm6.59375 2.078125l0.234375 1.453125q-0.6875 0.140625 -1.234375 0.140625q-0.890625 0 -1.390625 -0.28125q-0.484375 -0.28125 -0.6875 -0.734375q-0.203125 -0.46875 -0.203125 -1.9375l0 -5.578125l-1.203125 0l0 -1.265625l1.203125 0l0 -2.390625l1.625 -0.984375l0 3.375l1.65625 0l0 1.265625l-1.65625 0l0 5.671875q0 0.6875 0.078125 0.890625q0.09375 0.203125 0.28125 0.328125q0.203125 0.109375 0.578125 0.109375q0.265625 0 0.71875 -0.0625zm1.6051788 -10.0l0 -1.890625l1.640625 0l0 1.890625l-1.640625 0zm0 11.46875l0 -9.671875l1.640625 0l0 9.671875l-1.640625 0zm6.832321 0l-3.6875 -9.671875l1.734375 0l2.078125 5.796875q0.328125 0.9375 0.625 1.9375q0.203125 -0.765625 0.609375 -1.828125l2.140625 -5.90625l1.6875 0l-3.65625 9.671875l-1.53125 0zm13.265625 -3.109375l1.6875 0.203125q-0.40625 1.484375 -1.484375 2.3125q-1.078125 0.8125 -2.765625 0.8125q-2.125 0 -3.375 -1.296875q-1.234375 -1.3125 -1.234375 -3.671875q0 -2.453125 1.25 -3.796875q1.265625 -1.34375 3.265625 -1.34375q1.9375 0 3.15625 1.328125q1.234375 1.3125 1.234375 3.703125q0 0.15625 0 0.4375l-7.21875 0q0.09375 1.59375 0.90625 2.453125q0.8125 0.84375 2.015625 0.84375q0.90625 0 1.546875 -0.46875q0.640625 -0.484375 1.015625 -1.515625zm-5.390625 -2.65625l5.40625 0q-0.109375 -1.21875 -0.625 -1.828125q-0.78125 -0.953125 -2.03125 -0.953125q-1.125 0 -1.90625 0.765625q-0.765625 0.75 -0.84375 2.015625z" fill-rule="nonzero"/><path fill="#434343" d="m191.51833 101.58809l1.609375 0.21875q-0.265625 1.65625 -1.359375 2.609375q-1.078125 0.9375 -2.671875 0.9375q-1.984375 0 -3.1875 -1.296875q-1.203125 -1.296875 -1.203125 -3.71875q0 -1.578125 0.515625 -2.75q0.515625 -1.171875 1.578125 -1.75q1.0625 -0.59375 2.3125 -0.59375q1.578125 0 2.578125 0.796875q1.0 0.796875 1.28125 2.265625l-1.59375 0.234375q-0.234375 -0.96875 -0.8125 -1.453125q-0.578125 -0.5 -1.390625 -0.5q-1.234375 0 -2.015625 0.890625q-0.78125 0.890625 -0.78125 2.8125q0 1.953125 0.75 2.84375q0.75 0.875 1.953125 0.875q0.96875 0 1.609375 -0.59375q0.65625 -0.59375 0.828125 -1.828125zm3.015625 3.546875l0 -13.359375l1.640625 0l0 4.796875q1.140625 -1.328125 2.890625 -1.328125q1.078125 0 1.859375 0.421875q0.796875 0.421875 1.140625 1.171875q0.34375 0.75 0.34375 2.171875l0 6.125l-1.640625 0l0 -6.125q0 -1.234375 -0.53125 -1.796875q-0.53125 -0.5625 -1.515625 -0.5625q-0.71875 0 -1.359375 0.390625q-0.640625 0.375 -0.921875 1.015625q-0.265625 0.640625 -0.265625 1.78125l0 5.296875l-1.640625 0zm16.688217 -1.1875q-0.921875 0.765625 -1.765625 1.09375q-0.828125 0.3125 -1.796875 0.3125q-1.59375 0 -2.453125 -0.78125q-0.859375 -0.78125 -0.859375 -1.984375q0 -0.71875 0.328125 -1.296875q0.328125 -0.59375 0.84375 -0.9375q0.53125 -0.359375 1.1875 -0.546875q0.46875 -0.125 1.453125 -0.25q1.984375 -0.234375 2.921875 -0.5625q0.015625 -0.34375 0.015625 -0.421875q0 -1.0 -0.46875 -1.421875q-0.625 -0.546875 -1.875 -0.546875q-1.15625 0 -1.703125 0.40625q-0.546875 0.40625 -0.8125 1.421875l-1.609375 -0.21875q0.21875 -1.015625 0.71875 -1.640625q0.5 -0.640625 1.453125 -0.984375q0.953125 -0.34375 2.1875 -0.34375q1.25 0 2.015625 0.296875q0.78125 0.28125 1.140625 0.734375q0.375 0.4375 0.515625 1.109375q0.078125 0.421875 0.078125 1.515625l0 2.1875q0 2.28125 0.109375 2.890625q0.109375 0.59375 0.40625 1.15625l-1.703125 0q-0.265625 -0.515625 -0.328125 -1.1875zm-0.140625 -3.671875q-0.890625 0.375 -2.671875 0.625q-1.015625 0.140625 -1.4375 0.328125q-0.421875 0.1875 -0.65625 0.53125q-0.21875 0.34375 -0.21875 0.78125q0 0.65625 0.5 1.09375q0.5 0.4375 1.453125 0.4375q0.9375 0 1.671875 -0.40625q0.75 -0.421875 1.09375 -1.140625q0.265625 -0.5625 0.265625 -1.640625l0 -0.609375zm4.203842 4.859375l0 -9.671875l1.46875 0l0 1.375q1.0625 -1.59375 3.078125 -1.59375q0.875 0 1.609375 0.3125q0.734375 0.3125 1.09375 0.828125q0.375 0.5 0.515625 1.203125q0.09375 0.453125 0.09375 1.59375l0 5.953125l-1.640625 0l0 -5.890625q0 -1.0 -0.203125 -1.484375q-0.1875 -0.5 -0.671875 -0.796875q-0.484375 -0.296875 -1.140625 -0.296875q-1.046875 0 -1.8125 0.671875q-0.75 0.65625 -0.75 2.515625l0 5.28125l-1.640625 0zm10.063217 0.796875l1.59375 0.234375q0.109375 0.75 0.5625 1.078125q0.609375 0.453125 1.671875 0.453125q1.140625 0 1.75 -0.453125q0.625 -0.453125 0.84375 -1.265625q0.125 -0.5 0.109375 -2.109375q-1.0625 1.265625 -2.671875 1.265625q-2.0 0 -3.09375 -1.4375q-1.09375 -1.4375 -1.09375 -3.453125q0 -1.390625 0.5 -2.5625q0.515625 -1.171875 1.453125 -1.796875q0.953125 -0.640625 2.25 -0.640625q1.703125 0 2.8125 1.375l0 -1.15625l1.515625 0l0 8.359375q0 2.265625 -0.46875 3.203125q-0.453125 0.9375 -1.453125 1.484375q-0.984375 0.546875 -2.453125 0.546875q-1.71875 0 -2.796875 -0.78125q-1.0625 -0.765625 -1.03125 -2.34375zm1.359375 -5.8125q0 1.90625 0.75 2.78125q0.765625 0.875 1.90625 0.875q1.125 0 1.890625 -0.859375q0.765625 -0.875 0.765625 -2.734375q0 -1.78125 -0.796875 -2.671875q-0.78125 -0.90625 -1.890625 -0.90625q-1.09375 0 -1.859375 0.890625q-0.765625 0.875 -0.765625 2.625zm15.953842 1.90625l1.6875 0.203125q-0.40625 1.484375 -1.484375 2.3125q-1.078125 0.8125 -2.765625 0.8125q-2.125 0 -3.375 -1.296875q-1.234375 -1.3125 -1.234375 -3.671875q0 -2.453125 1.25 -3.796875q1.265625 -1.34375 3.265625 -1.34375q1.9375 0 3.15625 1.328125q1.234375 1.3125 1.234375 3.703125q0 0.15625 0 0.4375l-7.21875 0q0.09375 1.59375 0.90625 2.453125q0.8125 0.84375 2.015625 0.84375q0.90625 0 1.546875 -0.46875q0.640625 -0.484375 1.015625 -1.515625zm-5.390625 -2.65625l5.40625 0q-0.109375 -1.21875 -0.625 -1.828125q-0.78125 -0.953125 -2.03125 -0.953125q-1.125 0 -1.90625 0.765625q-0.765625 0.75 -0.84375 2.015625z" fill-rule="nonzero"/><path fill="#000000" fill-opacity="0.0" d="m0 114.45407l145.51181 0l0 42.551178l-145.51181 0z" fill-rule="evenodd"/><path fill="#434343" d="m19.15625 146.02531q-3.109375 0 -4.390625 -1.265625q-1.265625 -1.28125 -1.265625 -3.359375q0 -1.09375 0.5 -2.984375l3.1875 0.40625q-0.625 2.0 -0.625 2.578125q0 0.640625 0.421875 1.046875q0.5 0.515625 2.265625 0.515625l10.71875 0l0 3.0625l-10.8125 0zm-4.25 -16.84375l13.1875 0l0 3.0625l-13.1875 0l0 -3.0625zm29.25 10.515625q-0.109375 -0.703125 -0.8125 -0.703125q-2.0625 0 -3.609375 2.578125q-1.0 1.640625 -2.21875 4.75l-3.140625 -1.640625q4.125 -6.4375 9.6875 -17.937492l2.578125 1.4062424q1.453125 1.453125 -0.296875 1.625q-1.828125 2.703125 -3.859375 6.5q0.390625 -0.15625 1.703125 -0.15625q1.328125 0 2.140625 0.796875q0.78125 0.796875 0.984375 2.921875l0.5625 3.546875q0.109375 0.796875 1.0 0.796875q1.015625 0 1.703125 -0.703125q1.671875 -1.671875 2.8125 -7.40625l3.0 1.5q-1.34375 5.859375 -3.125 7.65625q-2.03125 2.015625 -4.578125 2.015625q-3.34375 0 -3.875 -3.515625l-0.65625 -4.03125zm29.84375 5.671875q-4.609375 0 -7.984375 -3.265625l1.828125 -2.390625q2.796875 2.6875 6.15625 2.59375l5.65625 0l0 3.0625l-5.65625 0zm-13.875 1.828125q-0.3125 -5.40625 -0.3125 -8.890625q0 -4.265625 1.125 -10.640617l2.390625 0.5937424q2.1875 0.390625 0.4375 1.625q-0.890625 5.1875 -0.890625 8.421875q0 3.640625 0.421875 8.609375l-3.171875 0.28125zm18.3125 -13.90625q-4.515625 -0.109375 -11.5 0.59375l0 -2.96875q7.234375 -0.703125 11.5 -0.59375l0 2.96875zm11.9375 11.53125q6.953125 0.203125 8.390625 -1.25q0.703125 -0.6875 0.703125 -1.796875q0 -0.921875 -0.796875 -1.703125q-0.6875 -0.703125 -2.359375 -0.703125q-2.3125 0 -4.09375 0.890625q-1.0625 0.53125 -3.953125 2.90625l-2.453125 -1.90625q0.9375 -0.9375 1.328125 -1.484375q1.0 -3.1875 1.515625 -5.765625q-1.875 0.203125 -4.40625 0.203125l-0.421875 -2.875q2.71875 0 5.421875 -0.25q0.375 -1.671875 0.609375 -4.5781174l2.359375 0.625q2.4375 0.609375 0.515625 1.5781174q-0.25 1.265625 -0.453125 2.09375q3.015625 -0.3125 5.640625 -0.875l0.578125 3.0q-4.28125 0.53125 -6.84375 0.78125q-0.578125 2.453125 -0.984375 4.140625q2.515625 -1.265625 5.359375 -1.265625q3.390625 0 5.046875 1.640625q1.453125 1.46875 1.453125 3.828125q0 2.265625 -1.453125 3.734375q-2.21875 2.203125 -9.71875 2.109375l-0.984375 -3.078125zm32.90625 -10.34375q0.15625 3.078125 -0.015625 6.296875q2.53125 0.921875 5.59375 3.125l-1.671875 2.640625q-2.359375 -1.8125 -3.9375 -2.5625q0 1.09375 -1.171875 2.28125q-1.28125 1.265625 -3.640625 1.265625q-2.359375 0 -3.640625 -1.265625q-1.078125 -1.09375 -1.078125 -2.796875q0 -1.515625 0.890625 -2.421875q1.28125 -1.265625 3.734375 -1.265625q1.28125 0 1.96875 0.15625q0.15625 -2.5625 0 -5.3125l-6.96875 0.46875l0 -2.96875l6.734375 -0.375q-0.078125 -2.109375 -0.4375 -4.7187424l2.59375 0q2.296875 0.421875 0.65625 1.5156174q0.078125 1.671875 0.140625 3.046875l5.09375 -0.28125l0 2.984375l-4.84375 0.1875zm-15.109375 12.65625q-0.453125 -3.171875 -0.453125 -6.671875q0 -7.65625 1.25 -12.765617l2.578125 0.46874237q1.703125 0.734375 0.171875 1.5q-0.9375 3.0 -0.9375 10.796875q0 3.515625 0.5625 6.125l-3.171875 0.546875zm12.140625 -4.328125q-1.203125 -0.34375 -1.96875 -0.34375q-1.109375 0 -1.515625 0.421875q-0.328125 0.3125 -0.328125 0.578125q0 0.546875 0.234375 0.765625q0.5 0.515625 1.609375 0.515625q1.078125 0 1.5 -0.484375q0.515625 -0.59375 0.46875 -1.453125z" fill-rule="nonzero"/><path fill="#000000" fill-opacity="0.0" d="m120.389626 0.9632546l176.22049 0l0 42.55118l-176.22049 0z" fill-rule="evenodd"/><path fill="#434343" d="m167.1943 27.472006l3.640625 3.125q0.65625 0.03125 0.984375 0.375q0.328125 0.328125 0.328125 0.828125q0 0.5312481 -0.375 0.8749981q-0.359375 0.328125 -1.21875 0.328125l-2.734375 0q-0.875 0 -1.25 -0.328125q-0.359375 -0.34375 -0.359375 -0.8906231q0 -0.421875 0.265625 -0.734375q0.265625 -0.328125 0.71875 -0.453125l-1.796875 -1.546875l-1.828125 1.546875q0.5625 0.140625 0.796875 0.4375q0.234375 0.296875 0.234375 0.75q0 0.5468731 -0.359375 0.8906231q-0.359375 0.328125 -1.234375 0.328125l-2.703125 0q-0.859375 0 -1.234375 -0.328125q-0.375 -0.34375 -0.375 -0.8749981q0 -0.5 0.328125 -0.828125q0.328125 -0.34375 0.984375 -0.375l3.5625 -3.140625l-3.140625 -2.6875q-0.625 -0.046875 -0.953125 -0.375q-0.3125 -0.34375 -0.3125 -0.84375q0 -0.515625 0.359375 -0.84375q0.375 -0.34375 1.234375 -0.34375l2.25 0q0.875 0 1.234375 0.34375q0.375 0.328125 0.375 0.84375q0 0.6875 -0.65625 1.125l1.453125 1.203125l1.4375 -1.234375q-0.65625 -0.453125 -0.65625 -1.046875q0 -0.5625 0.375 -0.890625q0.375 -0.34375 1.234375 -0.34375l2.234375 0q0.859375 0 1.21875 0.34375q0.375 0.328125 0.375 0.859375q0 0.484375 -0.328125 0.828125q-0.3125 0.328125 -0.9375 0.375l-3.171875 2.703125zm13.464844 -9.671875l0 2.546875l-2.859375 0l0 -2.546875l2.859375 0zm0.328125 4.5625l0 8.234375l2.890625 0q0.859375 0 1.21875 0.34375q0.375 0.328125 0.375 0.859375q0 0.5312481 -0.375 0.8749981q-0.359375 0.328125 -1.21875 0.328125l-8.171875 0q-0.875 0 -1.25 -0.328125q-0.359375 -0.34375 -0.359375 -0.8749981q0 -0.53125 0.359375 -0.859375q0.375 -0.34375 1.25 -0.34375l2.875 0l0 -5.828125l-1.921875 0q-0.859375 0 -1.234375 -0.328125q-0.375 -0.34375 -0.375 -0.890625q0 -0.515625 0.359375 -0.84375q0.375 -0.34375 1.25 -0.34375l4.328125 0zm10.777344 0l0 0.8125q0.65625 -0.5625 1.453125 -0.84375q0.796875 -0.28125 1.71875 -0.28125q2.125 0 3.375 1.3125q0.984375 1.0625 0.984375 2.765625l0 4.46875q0.765625 0 1.125 0.34375q0.359375 0.328125 0.359375 0.859375q0 0.5312481 -0.375 0.8749981q-0.359375 0.328125 -1.234375 0.328125l-2.15625 0q-0.875 0 -1.25 -0.328125q-0.359375 -0.34375 -0.359375 -0.8749981q0 -0.53125 0.359375 -0.859375q0.359375 -0.34375 1.125 -0.34375l0 -4.53125q0 -0.78125 -0.421875 -1.15625q-0.546875 -0.46875 -1.65625 -0.46875q-0.828125 0 -1.453125 0.328125q-0.625 0.328125 -1.59375 1.359375l0 4.46875q0.9375 0 1.203125 0.171875q0.578125 0.359375 0.578125 1.03125q0 0.5312481 -0.375 0.8749981q-0.375 0.328125 -1.234375 0.328125l-2.734375 0q-0.859375 0 -1.234375 -0.328125q-0.375 -0.34375 -0.375 -0.8749981q0 -0.65625 0.5625 -1.03125q0.28125 -0.171875 1.21875 -0.171875l0 -5.828125q-0.765625 0 -1.140625 -0.34375q-0.359375 -0.34375 -0.359375 -0.875q0 -0.515625 0.375 -0.84375q0.375 -0.34375 1.234375 -0.34375l2.28125 0zm34.992188 0.4375q0.421875 -0.421875 0.890625 -0.421875q0.515625 0 0.84375 0.375q0.328125 0.375 0.328125 1.21875l0 1.546875q0 0.875 -0.328125 1.234375q-0.328125 0.359375 -0.875 0.359375q-0.484375 0 -0.828125 -0.28125q-0.25 -0.203125 -0.390625 -0.84375q-0.140625 -0.65625 -0.671875 -0.984375q-0.953125 -0.5625 -2.4375 -0.5625q-1.6875 0 -2.71875 1.0q-1.03125 1.0 -1.03125 2.515625q0 1.40625 0.984375 2.234375q0.984375 0.8125 3.28125 0.8125q1.5 0 2.4375 -0.3125q0.5625 -0.1875 1.0625 -0.640625q0.515625 -0.453125 0.921875 -0.453125q0.5 0 0.84375 0.375q0.359375 0.359375 0.359375 0.84375q0 0.796875 -1.078125 1.5156231q-1.625 1.078125 -4.734375 1.078125q-2.8125 0 -4.359375 -1.171875q-2.109375 -1.5624981 -2.109375 -4.265623q0 -2.5625 1.703125 -4.234375q1.71875 -1.6875 4.46875 -1.6875q1.0 0 1.84375 0.1875q0.859375 0.1875 1.59375 0.5625zm8.167969 -5.0l0 5.125q0.75 -0.453125 1.515625 -0.65625q0.78125 -0.21875 1.5625 -0.21875q1.234375 0 2.203125 0.421875q0.984375 0.421875 1.625 1.328125q0.640625 0.90625 0.640625 2.28125l0 4.515625q0.90625 0 1.1875 0.171875q0.5625 0.375 0.5625 1.03125q0 0.5312481 -0.359375 0.8749981q-0.359375 0.328125 -1.234375 0.328125l-2.734375 0q-0.859375 0 -1.234375 -0.328125q-0.359375 -0.34375 -0.359375 -0.8749981q0 -0.65625 0.5625 -1.03125q0.28125 -0.1875 1.1875 -0.171875l0 -4.34375q0 -0.921875 -0.421875 -1.296875q-0.546875 -0.515625 -1.625 -0.515625q-0.796875 0 -1.421875 0.3125q-0.609375 0.3125 -1.65625 1.34375l0 4.5q0.9375 0 1.203125 0.171875q0.578125 0.375 0.578125 1.03125q0 0.5312481 -0.375 0.8749981q-0.375 0.328125 -1.234375 0.328125l-2.734375 0q-0.859375 0 -1.234375 -0.328125q-0.375 -0.34375 -0.375 -0.8749981q0 -0.65625 0.578125 -1.03125q0.28125 -0.1875 1.203125 -0.171875l0 -10.390625l-0.421875 0q-0.859375 0 -1.234375 -0.328125q-0.359375 -0.34375 -0.359375 -0.875q0 -0.53125 0.359375 -0.859375q0.375 -0.34375 1.234375 -0.34375l2.8125 0zm19.042969 15.203123l0 -0.5625q-0.890625 0.484375 -1.984375 0.71875q-1.09375 0.25 -1.984375 0.25q-1.9375 0 -3.140625 -1.03125q-1.203125 -1.0312481 -1.203125 -2.265623q0 -1.515625 1.53125 -2.8125q1.546875 -1.296875 4.265625 -1.296875q1.09375 0 2.515625 0.234375l0 -0.578125q0 -0.53125 -0.46875 -0.875q-0.453125 -0.34375 -1.75 -0.34375q-1.0625 0 -2.765625 0.421875q-0.640625 0.15625 -0.984375 0.15625q-0.484375 0 -0.828125 -0.34375q-0.328125 -0.34375 -0.328125 -0.890625q0 -0.296875 0.109375 -0.515625q0.125 -0.234375 0.328125 -0.359375q0.21875 -0.140625 0.890625 -0.328125q0.890625 -0.25 1.8125 -0.390625q0.9375 -0.140625 1.6875 -0.140625q2.234375 0 3.46875 0.96875q1.234375 0.953125 1.234375 2.640625l0 4.9375l0.40625 0q0.875 0 1.234375 0.34375q0.375 0.328125 0.375 0.859375q0 0.5312481 -0.375 0.8749981q-0.359375 0.328125 -1.234375 0.328125l-2.8125 0zm0 -4.296873q-1.4375 -0.28125 -2.65625 -0.28125q-1.46875 0 -2.515625 0.703125q-0.65625 0.46875 -0.65625 0.9375q0 0.328125 0.3125 0.546875q0.59375 0.390625 1.609375 0.390625q0.859375 0 1.953125 -0.34375q1.109375 -0.34375 1.953125 -0.921875l0 -1.03125zm-2.984375 -11.40625l2.640625 2.140625q0.484375 0.375 0.484375 0.75q0 0.328125 -0.234375 0.5625q-0.234375 0.21875 -0.5625 0.21875q-0.265625 0 -0.65625 -0.328125l-2.65625 -2.140625q-0.46875 -0.375 -0.46875 -0.75q0 -0.328125 0.21875 -0.546875q0.234375 -0.21875 0.5625 -0.21875q0.28125 0 0.671875 0.3125zm21.464844 10.578125q0 1.390625 -0.765625 2.6875q-0.765625 1.28125 -2.28125 2.062498q-1.515625 0.765625 -3.171875 0.765625q-1.640625 0 -3.140625 -0.75q-1.5 -0.7656231 -2.28125 -2.062498q-0.78125 -1.3125 -0.78125 -2.71875q0 -1.453125 0.796875 -2.828125q0.796875 -1.390625 2.28125 -2.1875q1.5 -0.796875 3.125 -0.796875q1.640625 0 3.15625 0.8125q1.515625 0.8125 2.28125 2.1875q0.78125 1.375 0.78125 2.828125zm-2.390625 0.015625q0 -1.15625 -0.84375 -2.140625q-1.125 -1.3125 -2.984375 -1.3125q-1.625 0 -2.71875 1.046875q-1.09375 1.046875 -1.09375 2.421875q0 1.125 1.09375 2.109375q1.109375 0.96875 2.71875 0.96875q1.625 0 2.71875 -0.96875q1.109375 -0.984375 1.109375 -2.125z" fill-rule="nonzero"/><path fill="#000000" fill-opacity="0.0" d="m105.0 103.0l50.992126 -48.031498" fill-rule="evenodd"/><path stroke="#434343" stroke-width="2.0" stroke-linejoin="round" stroke-linecap="butt" d="m113.73507 94.772095l33.52198 -31.57568" fill-rule="evenodd"/><path fill="#434343" stroke="#434343" stroke-width="2.0" stroke-linecap="butt" d="m111.470024 92.367424l-4.3417206 8.627846l8.871819 -3.818512z" fill-rule="evenodd"/><path fill="#434343" stroke="#434343" stroke-width="2.0" stroke-linecap="butt" d="m149.52211 65.60108l4.3417053 -8.627846l-8.871811 3.818512z" fill-rule="evenodd"/><path fill="#000000" fill-opacity="0.0" d="m273.0 54.889763l48.0 48.18898" fill-rule="evenodd"/><path stroke="#434343" stroke-width="2.0" stroke-linejoin="round" stroke-linecap="butt" d="m281.4686 63.391697l31.062805 31.185108" fill-rule="evenodd"/><path fill="#434343" stroke="#434343" stroke-width="2.0" stroke-linecap="butt" d="m283.80908 61.06039l-8.745697 -4.0991287l4.064728 8.761745z" fill-rule="evenodd"/><path fill="#434343" stroke="#434343" stroke-width="2.0" stroke-linecap="butt" d="m310.19092 96.90811l8.745697 4.0991287l-4.064728 -8.761742z" fill-rule="evenodd"/><path fill="#000000" fill-opacity="0.0" d="m283.6299 180.71391l145.51181 0l0 42.551178l-145.51181 0z" fill-rule="evenodd"/><path fill="#434343" d="m302.78616 212.28516q-3.109375 0 -4.390625 -1.265625q-1.265625 -1.28125 -1.265625 -3.359375q0 -1.09375 0.5 -2.984375l3.1875 0.40625q-0.625 2.0 -0.625 2.578125q0 0.640625 0.421875 1.046875q0.5 0.515625 2.265625 0.515625l10.71875 0l0 3.0625l-10.8125 0zm-4.25 -16.84375l13.1875 0l0 3.0625l-13.1875 0l0 -3.0625zm29.25 10.515625q-0.109375 -0.703125 -0.8125 -0.703125q-2.0625 0 -3.609375 2.578125q-1.0 1.640625 -2.21875 4.75l-3.140625 -1.640625q4.125 -6.4375 9.6875 -17.9375l2.578125 1.40625q1.453125 1.453125 -0.296875 1.625q-1.828125 2.703125 -3.859375 6.5q0.390625 -0.15625 1.703125 -0.15625q1.328125 0 2.140625 0.796875q0.78125 0.796875 0.984375 2.921875l0.5625 3.546875q0.109375 0.796875 1.0 0.796875q1.015625 0 1.703125 -0.703125q1.671875 -1.671875 2.8125 -7.40625l3.0 1.5q-1.34375 5.859375 -3.125 7.65625q-2.03125 2.015625 -4.578125 2.015625q-3.34375 0 -3.875 -3.515625l-0.65625 -4.03125zm29.84375 5.671875q-4.609375 0 -7.984375 -3.265625l1.828125 -2.390625q2.796875 2.6875 6.15625 2.59375l5.65625 0l0 3.0625l-5.65625 0zm-13.875 1.828125q-0.3125 -5.40625 -0.3125 -8.890625q0 -4.265625 1.125 -10.640625l2.390625 0.59375q2.1875 0.390625 0.4375 1.625q-0.890625 5.1875 -0.890625 8.421875q0 3.640625 0.421875 8.609375l-3.171875 0.28125zm18.3125 -13.90625q-4.515625 -0.109375 -11.5 0.59375l0 -2.96875q7.234375 -0.703125 11.5 -0.59375l0 2.96875zm11.9375 11.53125q6.953125 0.203125 8.390625 -1.25q0.703125 -0.6875 0.703125 -1.796875q0 -0.921875 -0.796875 -1.703125q-0.6875 -0.703125 -2.359375 -0.703125q-2.3125 0 -4.09375 0.890625q-1.0625 0.53125 -3.953125 2.90625l-2.453125 -1.90625q0.9375 -0.9375 1.328125 -1.484375q1.0 -3.1875 1.515625 -5.765625q-1.875 0.203125 -4.40625 0.203125l-0.421875 -2.875q2.71875 0 5.421875 -0.25q0.375 -1.671875 0.609375 -4.578125l2.359375 0.625q2.4375 0.609375 0.515625 1.578125q-0.25 1.265625 -0.453125 2.09375q3.015625 -0.3125 5.640625 -0.875l0.578125 3.0q-4.28125 0.53125 -6.84375 0.78125q-0.578125 2.453125 -0.984375 4.140625q2.515625 -1.265625 5.359375 -1.265625q3.390625 0 5.046875 1.640625q1.453125 1.46875 1.453125 3.828125q0 2.265625 -1.453125 3.734375q-2.21875 2.203125 -9.71875 2.109375l-0.984375 -3.078125zm32.90625 -10.34375q0.15625 3.078125 -0.015625 6.296875q2.53125 0.921875 5.59375 3.125l-1.671875 2.640625q-2.359375 -1.8125 -3.9375 -2.5625q0 1.09375 -1.171875 2.28125q-1.28125 1.265625 -3.640625 1.265625q-2.359375 0 -3.640625 -1.265625q-1.078125 -1.09375 -1.078125 -2.796875q0 -1.515625 0.890625 -2.421875q1.28125 -1.265625 3.734375 -1.265625q1.28125 0 1.96875 0.15625q0.15625 -2.5625 0 -5.3125l-6.96875 0.46875l0 -2.96875l6.734375 -0.375q-0.078125 -2.109375 -0.4375 -4.71875l2.59375 0q2.296875 0.421875 0.65625 1.515625q0.078125 1.671875 0.140625 3.046875l5.09375 -0.28125l0 2.984375l-4.84375 0.1875zm-15.109375 12.65625q-0.453125 -3.171875 -0.453125 -6.671875q0 -7.65625 1.25 -12.765625l2.578125 0.46875q1.703125 0.734375 0.171875 1.5q-0.9375 3.0 -0.9375 10.796875q0 3.515625 0.5625 6.125l-3.171875 0.546875zm12.140625 -4.328125q-1.203125 -0.34375 -1.96875 -0.34375q-1.109375 0 -1.515625 0.421875q-0.328125 0.3125 -0.328125 0.578125q0 0.546875 0.234375 0.765625q0.5 0.515625 1.609375 0.515625q1.078125 0 1.5 -0.484375q0.515625 -0.59375 0.46875 -1.453125z" fill-rule="nonzero"/></g></svg>